<?xml version="1.0" encoding="UTF-8" standalone="no"?>
<!DOCTYPE svg PUBLIC "-//W3C//DTD SVG 1.0//EN" "http://www.w3.org/TR/2001/PR-SVG-20010719/DTD/svg10.dtd">
<svg width="49cm" height="8cm" viewBox="52 95 966 154" xmlns="http://www.w3.org/2000/svg" xmlns:xlink="http://www.w3.org/1999/xlink">
  <g>
    <rect style="fill: #ffffff" x="151" y="200" width="81.9" height="36"/>
    <rect style="fill: none; fill-opacity:0; stroke-width: 2; stroke: #000000" x="151" y="200" width="81.9" height="36"/>
    <text font-size="12.8" style="fill: #000000;text-anchor:middle;font-family:monospace;font-style:normal;font-weight:normal" x="191.95" y="221.2">PRODUCT</text>
  </g>
  <g>
    <rect style="fill: #ffffff" x="869" y="199" width="81.9" height="36"/>
    <rect style="fill: none; fill-opacity:0; stroke-width: 2; stroke: #000000" x="869" y="199" width="81.9" height="36"/>
    <text font-size="12.8" style="fill: #000000;text-anchor:middle;font-family:monospace;font-style:normal;font-weight:normal" x="909.95" y="220.2">ALMACEN</text>
  </g>
  <g>
    <rect style="fill: #ffffff" x="539" y="199" width="66.5" height="36"/>
    <rect style="fill: none; fill-opacity:0; stroke-width: 2; stroke: #000000" x="539" y="199" width="66.5" height="36"/>
    <text font-size="12.8" style="fill: #000000;text-anchor:middle;font-family:monospace;font-style:normal;font-weight:normal" x="572.25" y="220.2">STOCK</text>
  </g>
  <g>
    <ellipse style="fill: #ffffff" cx="80.7" cy="158" rx="27.7" ry="18"/>
    <ellipse style="fill: none; fill-opacity:0; stroke-width: 2; stroke: #000000" cx="80.7" cy="158" rx="27.7" ry="18"/>
    <text font-size="12.8" style="fill: #000000;text-anchor:middle;font-family:monospace;font-style:normal;font-weight:normal" x="80.7" y="161.2">Id</text>
    <line style="fill: none; fill-opacity:0; stroke-width: 2; stroke: #000000" x1="73" y1="166" x2="88.4" y2="166"/>
  </g>
  <g>
    <ellipse style="fill: #ffffff" cx="162.6" cy="123.7" rx="43.1" ry="18"/>
    <ellipse style="fill: none; fill-opacity:0; stroke-width: 2; stroke: #000000" cx="162.6" cy="123.7" rx="43.1" ry="18"/>
    <text font-size="12.8" style="fill: #000000;text-anchor:middle;font-family:monospace;font-style:normal;font-weight:normal" x="162.6" y="126.9">Nombre</text>
  </g>
  <g>
    <ellipse style="fill: #ffffff" cx="242.9" cy="121.7" rx="35.4" ry="18"/>
    <ellipse style="fill: none; fill-opacity:0; stroke-width: 2; stroke: #000000" cx="242.9" cy="121.7" rx="35.4" ry="18"/>
    <text font-size="12.8" style="fill: #000000;text-anchor:middle;font-family:monospace;font-style:normal;font-weight:normal" x="242.9" y="124.9">Tipo</text>
  </g>
  <g>
    <ellipse style="fill: #ffffff" cx="331.15" cy="159.7" rx="54.65" ry="18"/>
    <ellipse style="fill: none; fill-opacity:0; stroke-width: 2; stroke: #000000" cx="331.15" cy="159.7" rx="54.65" ry="18"/>
    <text font-size="12.8" style="fill: #000000;text-anchor:middle;font-family:monospace;font-style:normal;font-weight:normal" x="331.15" y="162.9">Proveedor</text>
  </g>
  <line style="fill: none; fill-opacity:0; stroke-width: 2; stroke: #000000" x1="105" y1="169" x2="158.229" y2="198.997"/>
  <line style="fill: none; fill-opacity:0; stroke-width: 2; stroke: #000000" x1="168.451" y1="142.498" x2="186.038" y2="199.006"/>
  <line style="fill: none; fill-opacity:0; stroke-width: 2; stroke: #000000" x1="233.241" y1="139.956" x2="202.004" y2="198.997"/>
  <line style="fill: none; fill-opacity:0; stroke-width: 2; stroke: #000000" x1="296.443" y1="174.236" x2="233.895" y2="200.432"/>
  <g>
    <ellipse style="fill: #ffffff" cx="852.2" cy="118.7" rx="27.7" ry="18"/>
    <ellipse style="fill: none; fill-opacity:0; stroke-width: 2; stroke: #000000" cx="852.2" cy="118.7" rx="27.7" ry="18"/>
    <text font-size="12.8" style="fill: #000000;text-anchor:middle;font-family:monospace;font-style:normal;font-weight:normal" x="852.2" y="121.9">Id</text>
    <line style="fill: none; fill-opacity:0; stroke-width: 2; stroke: #000000" x1="844.5" y1="126.7" x2="859.9" y2="126.7"/>
  </g>
  <g>
    <ellipse style="fill: #ffffff" cx="973.6" cy="117.7" rx="43.1" ry="18"/>
    <ellipse style="fill: none; fill-opacity:0; stroke-width: 2; stroke: #000000" cx="973.6" cy="117.7" rx="43.1" ry="18"/>
    <text font-size="12.8" style="fill: #000000;text-anchor:middle;font-family:monospace;font-style:normal;font-weight:normal" x="973.6" y="120.9">Nombre</text>
  </g>
  <line style="fill: none; fill-opacity:0; stroke-width: 2; stroke: #000000" x1="862.584" y1="136.375" x2="898.84" y2="198.089"/>
  <line style="fill: none; fill-opacity:0; stroke-width: 2; stroke: #000000" x1="962.039" y1="135.737" x2="922.009" y2="198.187"/>
  <g>
    <ellipse style="fill: #ffffff" cx="520.25" cy="114" rx="39.25" ry="18"/>
    <ellipse style="fill: none; fill-opacity:0; stroke-width: 2; stroke: #000000" cx="520.25" cy="114" rx="39.25" ry="18"/>
    <text font-size="12.8" style="fill: #000000;text-anchor:middle;font-family:monospace;font-style:normal;font-weight:normal" x="520.25" y="117.2">Stock</text>
  </g>
  <g>
    <ellipse style="fill: #ffffff" cx="626.3" cy="114.7" rx="50.8" ry="18"/>
    <ellipse style="fill: none; fill-opacity:0; stroke-width: 2; stroke: #000000" cx="626.3" cy="114.7" rx="50.8" ry="18"/>
    <text font-size="12.8" style="fill: #000000;text-anchor:middle;font-family:monospace;font-style:normal;font-weight:normal" x="626.3" y="117.9">MaxStock</text>
  </g>
  <g>
    <ellipse style="fill: #ffffff" cx="672.3" cy="160.7" rx="50.8" ry="18"/>
    <ellipse style="fill: none; fill-opacity:0; stroke-width: 2; stroke: #000000" cx="672.3" cy="160.7" rx="50.8" ry="18"/>
    <text font-size="12.8" style="fill: #000000;text-anchor:middle;font-family:monospace;font-style:normal;font-weight:normal" x="672.3" y="163.9">MinStock</text>
  </g>
  <line style="fill: none; fill-opacity:0; stroke-width: 2; stroke: #000000" x1="529.549" y1="132.42" x2="562.678" y2="198.04"/>
  <line style="fill: none; fill-opacity:0; stroke-width: 2; stroke: #000000" x1="616.535" y1="133.182" x2="582.285" y2="198.006"/>
  <line style="fill: none; fill-opacity:0; stroke-width: 2; stroke: #000000" x1="644.454" y1="176.369" x2="606.019" y2="197.997"/>
  <g>
    <ellipse style="fill: #ffffff" cx="484.2" cy="158.7" rx="27.7" ry="18"/>
    <ellipse style="fill: none; fill-opacity:0; stroke-width: 2; stroke: #000000" cx="484.2" cy="158.7" rx="27.7" ry="18"/>
    <text font-size="12.8" style="fill: #000000;text-anchor:middle;font-family:monospace;font-style:normal;font-weight:normal" x="484.2" y="161.9">Id</text>
    <line style="fill: none; fill-opacity:0; stroke-width: 2; stroke: #000000" x1="476.5" y1="166.7" x2="491.9" y2="166.7"/>
  </g>
  <line style="fill: none; fill-opacity:0; stroke-width: 2; stroke: #000000" x1="484.2" y1="158.7" x2="484.2" y2="158.7"/>
  <line style="fill: none; fill-opacity:0; stroke-width: 2; stroke: #000000" x1="504.428" y1="172.094" x2="543.617" y2="198.041"/>
  <g>
    <polygon style="fill: #ffffff" points="341,217.55 380.25,194 419.5,217.55 380.25,241.1 "/>
    <polygon style="fill: none; fill-opacity:0; stroke-width: 2; stroke: #000000" points="341,217.55 380.25,194 419.5,217.55 380.25,241.1 "/>
    <text font-size="12.8" style="fill: #000000;text-anchor:end;font-family:monospace;font-style:normal;font-weight:normal" x="335" y="211.55">1</text>
    <text font-size="12.8" style="fill: #000000;text-anchor:start;font-family:monospace;font-style:normal;font-weight:normal" x="425.5" y="211.55">N</text>
    <text font-size="12.8" style="fill: #000000;text-anchor:middle;font-family:monospace;font-style:normal;font-weight:normal" x="380.25" y="220.75">tiene</text>
  </g>
  <polyline style="fill: none; fill-opacity:0; stroke-width: 2; stroke: #000000" points="233.905,218 287.004,218 287.004,217.55 340.104,217.55 "/>
  <g>
    <polyline style="fill: none; fill-opacity:0; stroke-width: 2; stroke: #000000" points="419.5,215.05 476.246,215.05 476.246,214.5 537.992,214.5 "/>
    <polyline style="fill: none; fill-opacity:0; stroke-width: 2; stroke: #000000" points="419.5,220.05 481.246,220.05 481.246,219.5 537.992,219.5 "/>
  </g>
  <g>
    <polygon style="fill: #ffffff" points="700,217.48 750.8,187 801.6,217.48 750.8,247.96 "/>
    <polygon style="fill: none; fill-opacity:0; stroke-width: 2; stroke: #000000" points="700,217.48 750.8,187 801.6,217.48 750.8,247.96 "/>
    <text font-size="12.8" style="fill: #000000;text-anchor:end;font-family:monospace;font-style:normal;font-weight:normal" x="694" y="211.48">N</text>
    <text font-size="12.8" style="fill: #000000;text-anchor:start;font-family:monospace;font-style:normal;font-weight:normal" x="807.6" y="211.48">1</text>
    <text font-size="12.8" style="fill: #000000;text-anchor:middle;font-family:monospace;font-style:normal;font-weight:normal" x="750.8" y="220.68">Relación</text>
  </g>
  <g>
    <polyline style="fill: none; fill-opacity:0; stroke-width: 2; stroke: #000000" points="606.508,214.5 655.28,214.5 655.28,214.98 699.052,214.98 "/>
    <polyline style="fill: none; fill-opacity:0; stroke-width: 2; stroke: #000000" points="606.508,219.5 650.28,219.5 650.28,219.98 699.052,219.98 "/>
  </g>
  <polyline style="fill: none; fill-opacity:0; stroke-width: 2; stroke: #000000" points="801.6,217.48 834.797,217.48 834.797,217 867.995,217 "/>
</svg>
